<svg xmlns="http://www.w3.org/2000/svg" id="Layer_2" data-name="Layer 2" viewBox="0 0 248 68.05"><defs><style>.cls-1{fill:#05c2df;isolation:isolate;opacity:.45;stroke-width:0}</style></defs><g id="Layer_1-2" data-name="Layer 1"><path d="M33.47 68.05a33.14 33.14 0 0 1-15.48-3.85A33.7 33.7 0 0 1 4.87 51.71 34.4 34.4 0 0 1 0 34.14c-.01-6.2 1.64-12.29 4.78-17.6 3.15-5.32 7.66-9.66 13.06-12.55C23.37 1.03 29.16-.3 35.06.06c6.88.41 11.98 2.01 16.51 5.18l-1.15 1.64c-4.22-2.95-8.99-4.44-15.49-4.82-5.6-.33-10.89.88-16.15 3.7-5.08 2.72-9.33 6.81-12.29 11.81S1.97 28.31 1.98 34.15s1.6 11.57 4.58 16.55c2.98 4.99 7.25 9.05 12.34 11.75a31 31 0 0 0 16.53 3.56c5.63-.36 11.15-2.35 15.96-5.75l1.15 1.63c-5.12 3.61-10.99 5.73-16.98 6.12-.71.05-1.42.07-2.12.07ZM86 11.05H56v2h30zM86 55.05H56v2h30zM91 11.05h-2v2h2zM88 11.05h-2v2h2zM94 11.05h-2v2h2zM97 11.05h-2v2h2zM100 11.05h-2v2h2zM104 11.05h-2v2h2zM108 11.05h-2v2h2zM112 11.05h-2v2h2zM117 11.05h-2v2h2zM122 11.05h-2v2h2zM127 11.05h-2v2h2zM132 11.05h-2v2h2zM137 11.05h-2v2h2zM142 11.05h-2v2h2zM153.6 11.28H152v1.6h1.6zM159.6 11.28H158v1.6h1.6zM165.6 11.28H164v1.6h1.6zM171.3 11.48H170v1.3h1.3zM178.3 11.48H177v1.3h1.3zM185.3 11.48H184v1.3h1.3zM192.3 11.48H191v1.3h1.3zM200.3 11.48H199v1.3h1.3zM209.3 11.48H208v1.3h1.3zM147.6 11.28H146v1.6h1.6zM248 11.55h-1v1h1zM234 11.55h-1v1h1zM221 11.55h-1v1h1zM91 55.05h-2v2h2zM88 55.05h-2v2h2zM94 55.05h-2v2h2zM97 55.05h-2v2h2zM100 55.05h-2v2h2zM104 55.05h-2v2h2zM108 55.05h-2v2h2zM112 55.05h-2v2h2zM117 55.05h-2v2h2zM122 55.05h-2v2h2zM127 55.05h-2v2h2zM132 55.05h-2v2h2zM137 55.05h-2v2h2zM142 55.05h-2v2h2zM153.6 55.28H152v1.6h1.6zM159.6 55.28H158v1.6h1.6zM165.6 55.28H164v1.6h1.6zM171.3 55.48H170v1.3h1.3zM178.3 55.48H177v1.3h1.3zM185.3 55.48H184v1.3h1.3zM192.3 55.48H191v1.3h1.3zM200.3 55.48H199v1.3h1.3zM209.3 55.48H208v1.3h1.3zM147.6 55.28H146v1.6h1.6zM248 55.55h-1v1h1zM234 55.55h-1v1h1zM221 55.55h-1v1h1z" class="cls-1"/></g></svg>